<svg xmlns="http://www.w3.org/2000/svg" width="128" height="128" viewBox="0 0 30 30" fill="none" color="#F4E7D0" role="img" aria-label="GitHub">
  <path fill="currentColor" d="M15 3C8.373 3 3 8.373 3 15c0 5.623 3.872 10.328 9.092 11.63C12.036 26.468 12 26.28 12 26.047v-2.051c-.487 0-1.303 0-1.508 0-.821 0-1.551-.353-1.905-1.009-.393-.729-.461-1.844-1.435-2.526-.289-.227-.069-.486.264-.451.615.174 1.125.596 1.605 1.222.478.627.703.769 1.596.769.433 0 1.081-.025 1.691-.121.328-.833.895-1.6 1.588-1.962-3.996-.411-5.903-2.399-5.903-5.098 0-1.162.495-2.286 1.336-3.233C9.053 10.647 8.706 8.73 9.435 8c1.798 0 2.885 1.166 3.146 1.481C13.477 9.174 14.461 9 15.495 9c1.036 0 2.024.174 2.922.483C18.675 9.17 19.763 8 21.565 8c.732.731.381 2.656.102 3.594.836.945 1.328 2.066 1.328 3.226 0 2.697-1.904 4.684-5.894 5.097C18.199 20.49 19 22.1 19 23.313v2.734c0 .104-.023.179-.035.268C23.641 24.676 27 20.236 27 15c0-6.627-5.373-12-12-12z" />
</svg>
